<svg xmlns="http://www.w3.org/2000/svg" viewBox="0 0 719.6 457.71"><defs><style>.cls-1,.cls-3{fill:none;stroke-miterlimit:10;}.cls-1{stroke:#92ff92;}.cls-2{fill:red;}.cls-3{stroke:red;}.cls-4{fill:#fff;}</style></defs><g id="Greenlines"><path class="cls-1" d="M609.85,310.15l3.71,5.55s17.18,1.19,18.37,1.78,24.44,17.63,24.44,17.63-10.37,18.07-12.74,20" transform="translate(-598.71 -309.53)"/><line class="cls-1" x1="43.88" y1="32.4" x2="50.27" y2="37.97"/><path class="cls-1" d="M631.93,317.48l-15.26,21.33,20.44,16.3s5.34,1.93,1.93,5-28.59,21.63-28.59,21.63" transform="translate(-598.71 -309.53)"/><line class="cls-1" x1="20.62" y1="58.77" x2="23.85" y2="63.28"/><line class="cls-1" x1="0.36" y1="51.51" x2="18.69" y2="39.21"/><polyline class="cls-1" points="1.06 63.28 7.44 73.29 4.25 75.66"/><path class="cls-1" d="M650,310.15,664.37,315s-3.85,12.6-5,14.08" transform="translate(-598.71 -309.53)"/><path class="cls-1" d="M665.41,310.15a27.62,27.62,0,0,1-1,4.81" transform="translate(-598.71 -309.53)"/><path class="cls-1" d="M681.93,310.15s-10.52,47.92-10.52,49.7" transform="translate(-598.71 -309.53)"/><path class="cls-1" d="M603,402.37c1.48-.74,17.34-11.7,17.34-11.7" transform="translate(-598.71 -309.53)"/><polyline class="cls-1" points="30.62 74.92 32.84 73.88 38.91 87.96 32.84 114.77 13.59 86.63"/><path class="cls-1" d="M633,427.11s-12.77,60.3-12.09,62.37,3,1.19,3,1.19" transform="translate(-598.71 -309.53)"/><polyline class="cls-1" points="0.29 122.33 2.25 121.03 14.62 112.84 20.62 112.84"/><path class="cls-1" d="M599,429.19" transform="translate(-598.71 -309.53)"/><polyline class="cls-1" points="13.59 139.81 16.25 144.4 23.85 144.4"/><line class="cls-1" x1="16.25" y1="144.4" x2="0.29" y2="155.51"/><path class="cls-1" d="M629.47,421.24s-6.86,27.8-6.91,31.65l-1.64,18.37s-6.4,10.81-6,13.93h-6.37v2.22l-5.63-.6s.41-5.77-1.77-8.14" transform="translate(-598.71 -309.53)"/><polyline class="cls-1" points="33.14 182.77 15.8 331.81 0.99 378.03"/><path class="cls-1" d="M619.7,764.89c.15-.89,4.15-29.19,4.15-29.19l112.59-23.26.75,2.82" transform="translate(-598.71 -309.53)"/><polyline class="cls-1" points="143.8 437.29 138.47 441.73 129.88 456.7"/><line class="cls-1" x1="149.29" y1="455.36" x2="149.29" y2="457.29"/><path class="cls-1" d="M623.85,735.7l17.19-80s9.18-4.74,9.63-4.89,65.92-12.59,65.92-12.59L724,655.11l11.11,46.67" transform="translate(-598.71 -309.53)"/><line class="cls-1" x1="150.03" y1="384.55" x2="164.54" y2="450.18"/><line class="cls-1" x1="174.62" y1="456.7" x2="288.84" y2="419.66"/><line class="cls-1" x1="307.8" y1="413.14" x2="299.51" y2="400.4"/><path class="cls-1" d="M947,767s-61.63-93-73.92-107.85-28.45-10.81-28.45-10.81" transform="translate(-598.71 -309.53)"/><path class="cls-1" d="M747.26,686.07c.74-.14,88.89-28.44,88.89-28.44" transform="translate(-598.71 -309.53)"/><path class="cls-1" d="M801.63,653.93c-.3.88,1.48,6.81-5.33,9.33s-39.71,12.89-39.71,12.89-9.92,1.48-11.11,0S741,656.89,741,656.89" transform="translate(-598.71 -309.53)"/><path class="cls-1" d="M742.69,665.37s39.38-8,40-8.48" transform="translate(-598.71 -309.53)"/><path class="cls-1" d="M790.37,653.93c1.33,0,10.07-2.52,10.07-2.52" transform="translate(-598.71 -309.53)"/><path class="cls-1" d="M715.85,609.33s-4.59-16.59-4.59-17.77" transform="translate(-598.71 -309.53)"/><path class="cls-1" d="M727,606.22s-6.22-29-6.37-39.11-1-32.74,0-36.89S727,493,727.85,491.85l3,3.41-2.37,11.55-2.07,11-.91,6.81-1.16,5.78L723.85,544" transform="translate(-598.71 -309.53)"/><path class="cls-1" d="M752.59,425" transform="translate(-598.71 -309.53)"/><line class="cls-1" x1="155.66" y1="0.47" x2="152.1" y2="19.22"/><line class="cls-1" x1="149.73" y1="31.36" x2="144.54" y2="53.59"/><line class="cls-1" x1="141.14" y1="68.55" x2="133.43" y2="101.29"/><line class="cls-1" x1="130.92" y1="115.51" x2="110.92" y2="206.18"/><path class="cls-1" d="M766,337.56l-4.89,25.11L755,389.78s-1.78,3.55,2.89,4.66,27.33-9.66,27.33-9.66" transform="translate(-598.71 -309.53)"/><polyline class="cls-1" points="162.4 53.14 206.62 39.36 217.18 61.59"/><path class="cls-1" d="M790.67,382.56c.22-.34,21.11-9.12,21.11-9.12" transform="translate(-598.71 -309.53)"/><path class="cls-1" d="M783.44,378.07s-4.44-9.51-4.55-10.51-1.71-9.9-1.71-9.9" transform="translate(-598.71 -309.53)"/><line class="cls-1" x1="182.95" y1="56.51" x2="180.06" y2="57.28"/><polyline class="cls-1" points="206.62 39.36 202.51 28.81 241.39 13.12 255.4 7.47 260.29 6.81 272.95 35.25"/><line class="cls-1" x1="254.95" y1="43.81" x2="241.39" y2="13.12"/><polyline class="cls-1" points="222.18 20.87 236.06 53.59 222.18 60.14"/><line class="cls-1" x1="220.62" y1="54.59" x2="223.16" y2="59.68"/><line class="cls-1" x1="240.62" y1="51.7" x2="242.29" y2="51.14"/><line class="cls-1" x1="265.62" y1="0.47" x2="279.51" y2="32.36"/><line class="cls-1" x1="282.95" y1="1.25" x2="294.62" y2="27.03"/><line class="cls-1" x1="282.95" y1="27.03" x2="285.17" y2="32.36"/><line class="cls-1" x1="293.73" y1="0.47" x2="304.17" y2="23.7"/><line class="cls-1" x1="304.73" y1="0.47" x2="313.51" y2="19.47"/><polyline class="cls-1" points="317.51 2.92 319.4 2.92 324.84 16.42 318.62 18.92"/><polyline class="cls-1" points="329.29 8.03 332.06 13.12 348.18 6.03 344.29 1.25"/><polyline class="cls-1" points="352.73 0.47 354.18 2.92 357.51 0.47"/><path class="cls-1" d="M761.89,410.33c1-.55,39.33-17.55,39.33-17.55" transform="translate(-598.71 -309.53)"/><polyline class="cls-1" points="186.51 90.36 194.18 110.81 215.84 101.29 207.73 80.59"/><line class="cls-1" x1="194.17" y1="110.81" x2="179.51" y2="116.92"/><polyline class="cls-1" points="214.95 99.01 220.62 97.03 227.4 112.03"/><path class="cls-1" d="M841,376.11s-25,9.78-27.34,11.59.9,7.41.9,7.41l4.77,11.45,5.78-2,11.33-3.45c.34-.33-8.61-19.73-8.61-19.73" transform="translate(-598.71 -309.53)"/><line class="cls-1" x1="238.06" y1="91.25" x2="251.8" y2="124.34"/><line class="cls-1" x1="244.93" y1="65.25" x2="267.58" y2="117.38"/><path class="cls-1" d="M847.48,373.44c.52-.44,27.74-12.22,27.74-12.22" transform="translate(-598.71 -309.53)"/><polyline class="cls-1" points="262.64 57.73 264.62 66.59 277.18 92.03"/><line class="cls-1" x1="294.62" y1="43.7" x2="319.17" y2="33.59"/><path class="cls-1" d="M907.83,347.25l1.39,4.53s1.61,1.78-.69,3.22" transform="translate(-598.71 -309.53)"/><path class="cls-1" d="M923.56,340.56c.66-.23,17.55-7.34,17.55-7.34l23,54.48-41.78,17L872.89,424l-39,17.19L799.7,454.81s-59.4,24.3-61,25-7.86-1-7.86-1l.75-5.33,9-43.26,12-5.18,4.89,12.89c5.78,11.26-4.59,13-4.89,13" transform="translate(-598.71 -309.53)"/><polyline class="cls-1" points="365.43 78.18 373.51 74.88 377.95 79.14"/><polyline class="cls-1" points="375.73 77.01 367.4 80.7 312.84 103.25 238.84 134.14 160.95 166.59 137.29 176.36"/><path class="cls-1" d="M972.22,384.4s17.89-5.4,8.34-25.84l-20.81-29s-1-4.56-8.42-1.12l-7.44,3.45" transform="translate(-598.71 -309.53)"/><path class="cls-1" d="M980.89,312.44l-15,8.56s-3.22,1.87.78,6.16,28.11,33.06,28.11,33.06l10.78-10.44,9.88-4.67" transform="translate(-598.71 -309.53)"/><line class="cls-1" x1="406.84" y1="40.25" x2="386.4" y2="1.25"/><line class="cls-1" x1="413.17" y1="1.25" x2="437.29" y2="43.03"/><line class="cls-1" x1="424.4" y1="31.36" x2="429.56" y2="29.65"/><path class="cls-1" d="M998.11,364.67l12.56,14.11,22.89-18.56,30-23.89s3.22-3.11,13.88,4.56,14.89,11.67,14.89,11.67l.56,9.11s6.67-.78,7.22-.78,32.78-9.11,32.78-9.11,28.33-14.67,28.67-15.45,9.11-20.22,9.11-20.22L1156.89,310" transform="translate(-598.71 -309.53)"/><polyline class="cls-1" points="440.62 0.47 452.06 23.14 454.92 18.61 465.84 1.25"/><line class="cls-1" x1="454.92" y1="18.61" x2="466.62" y2="26.18"/><line class="cls-1" x1="474.82" y1="28.82" x2="491.95" y2="0.47"/><line class="cls-1" x1="520.06" y1="1.25" x2="493.62" y2="43.03"/><line class="cls-1" x1="549.17" y1="0.47" x2="531.51" y2="29.65"/><path class="cls-1" d="M1162.56,332.67" transform="translate(-598.71 -309.53)"/><path class="cls-1" d="M1163.2,332.67s-13,3.57-18.87,6.5a102,102,0,0,1-14.11,6.16c-3.33,1-27.55,11.11-30.11,15.56" transform="translate(-598.71 -309.53)"/><line class="cls-1" x1="611.66" y1="0.47" x2="622.62" y2="4.1"/><path class="cls-1" d="M1179.7,320.3l30.67,10.37s5.93,5.48,9,6.37,19.55,3.85,19.55,3.85,12.3-1.19,13.78,0,2.37,9.33,2.37,9.33" transform="translate(-598.71 -309.53)"/><path class="cls-1" d="M1354.67,235.11" transform="translate(-598.71 -309.53)"/><path class="cls-1" d="M1296,310.78l-1,9.52s.3,7.4-5.18,7.4-13.34-1.92-13.34-1.92" transform="translate(-598.71 -309.53)"/><path class="cls-1" d="M1318.22,353.33,1264,342.67s1.33,13.48,2.07,15.11,5.19,18.52,5.93,18.37,25.78-6.67,25.78-6.67" transform="translate(-598.71 -309.53)"/><line class="cls-1" x1="663.66" y1="67.96" x2="670.77" y2="97.14"/><line class="cls-1" x1="680.84" y1="104.1" x2="683.8" y2="116.99"/><path class="cls-1" d="M1317.93,470.52c-.89-.3-15.71-2.67-15.71-2.67s-3-11.55-7.11-11.26-25.63,3.71-25.63,3.71l-9.63,1.92" transform="translate(-598.71 -309.53)"/><path class="cls-1" d="M1302.22,467.85l7.56,25s-55.11,42.67-75,41.48" transform="translate(-598.71 -309.53)"/><line class="cls-1" x1="719.21" y1="241.88" x2="685.14" y2="258.47"/><polyline class="cls-1" points="709.95 395.36 711.06 378.7 719.21 378.7"/><path class="cls-1" d="M1309.78,688.22V582.44s-9.78-1.33-14.22,5.56c0,0,0,8.22-2.23,9.11s-121.77,28.67-121.77,28.67-8.23,2.44-4.45,13.78,21.56,65.33,21.56,65.33" transform="translate(-598.71 -309.53)"/><path class="cls-1" d="M1245.56,456.59l-22.67,4.52-12.67,2.44L1208,448.89l-53.11,10.22-11.11-64,25.7-4.67.08,3-9,1.92-.37,3.41a23.4,23.4,0,0,1-3.11,1.7c-.89.3,8,43.34,8,43.34l35.41-5.48L1197,414.89s-6.74,1.48-6.89.74-.81-5-.81-5l6.3-1.34-3.86-20.44L1174,392.3l-1.26-3.41,36.89-5.78,10,56.67s3,1.33,3.48,2.66,1.19,8.15-1.18,9.49-8.45.74-9.26-2.52" transform="translate(-598.71 -309.53)"/><path class="cls-1" d="M1210.15,449.56c.15.22,1.78,10.59,1.78,10.59l8.51-.52-.53-7.12" transform="translate(-598.71 -309.53)"/><line class="cls-1" x1="623.6" y1="142.11" x2="624.73" y2="151.47"/></g><g id="RedHouses"><path class="cls-2" d="M599,310c.44,0,3,.15,3,.15L610.45,321l-4.3,4.22,2.09,2.56-8.46,5.66-.7-.81Z" transform="translate(-598.71 -309.53)"/><polygon class="cls-2" points="20.62 0.62 20.62 2.59 28.18 2.59 28.18 1.6 29.73 1.6 29.73 0.47 20.62 0.62"/><polygon class="cls-2" points="31.14 15.96 36.4 9.21 41.46 9.51 42.32 13.51 37.95 20.25 31.14 15.96"/><path class="cls-2" d="M641.85,322.81c.08-.59,3.94-12.37,3.94-12.37l10.28,3.71-2.51,11.41,2.81.74-1,5-7.48-3-.22-2-.44-1.63Z" transform="translate(-598.71 -309.53)"/><path class="cls-2" d="M640.18,325.56c0,.07,8.8,7.55,8.8,7.55l-13.2,16.82s-9.41-6.23-9.11-6.82S640.18,325.56,640.18,325.56Z" transform="translate(-598.71 -309.53)"/><path class="cls-2" d="M623.48,333.44l6.37,4.3-5,7s-6.47-3.95-6.27-4.4S623.48,333.44,623.48,333.44Z" transform="translate(-598.71 -309.53)"/><path class="cls-2" d="M616.11,338.28c-.17.05-5.28,3.66-5.28,3.66l4.95,5.89,5.44-3.44Z" transform="translate(-598.71 -309.53)"/><polygon class="cls-2" points="8.18 64.03 9.29 66.47 31.14 51.7 29.73 49.03 32.29 47.36 28.62 41.92 26.51 42.92 25.48 41.03 22.51 42.92 20.62 41.59 17.31 44.14 18.4 45.59 9.73 51.48 8.62 52.03 7.76 50.5 4.54 53.06 4.9 55.31 2.29 55.53 2.29 57.42 4.06 57.48 4.06 59.48 2.56 59.59 2.67 61.14 5.51 64.81 8.18 64.03"/><polygon class="cls-2" points="98.77 0.47 96.84 11.36 106.84 13.29 109.36 0.47 98.77 0.47"/><path class="cls-2" d="M717.11,321.33h3.41s-1.78,11-2.22,11-2.89-.08-2.89-.37S717.11,321.33,717.11,321.33Z" transform="translate(-598.71 -309.53)"/><path class="cls-2" d="M714.37,333.11l3.59.33-1.22,7.6s-3.85-.15-3.7-.52S714.37,333.11,714.37,333.11Z" transform="translate(-598.71 -309.53)"/><path class="cls-2" d="M710.59,345.26c.45,0,5.48.3,5.48.3L715,353.41l-5.4-1Z" transform="translate(-598.71 -309.53)"/><path class="cls-2" d="M626,394.37c.15-.22,4.15-3.18,4.15-3.18l7.26,10.51-4.22,3.19Z" transform="translate(-598.71 -309.53)"/><path class="cls-2" d="M613.19,398.52c.29.15,1.62,1.26,1.92,1l8.08-6.15,7.25,9.26-5.11,3.48,1.26,2.74L618.15,414,616,411.85,611.7,414l-.29,1.7s1.63.67,1.7,1.19-1,2.15-1,2.15l1.93,1.33-3.48,2.82s-1.63-1.63-2.59-1.56-1.78,1.56-1.78,1.56h-1a16.7,16.7,0,0,0-1.63-2.45c-.44-.37.37-.44-.44-.37s-3.41,2.44-3.41,2.44l-.63.08V408.3h1.44l4.23,6.44,4.07-2.44-5-6.3Z" transform="translate(-598.71 -309.53)"/><path class="cls-2" d="M619.28,421.94s9.05.34,9,.56-.72,5.61-.72,5.61l-9.12-.33v-5.84Z" transform="translate(-598.71 -309.53)"/><path class="cls-2" d="M602.17,435.72c.33-.39,13.05-8.94,13.05-8.94l6.67,9.5-11.78,8.11,2.5,4.11-5.28,4.11L605.22,450,599,454V439.83l2.44-1.27Z" transform="translate(-598.71 -309.53)"/><path class="cls-2" d="M599,467.67c.89-.5,13-9,13-9l8.06,11.94-3.45,3.11-1.89-2.66-9.5,6.05-6.22-7.5Z" transform="translate(-598.71 -309.53)"/><path class="cls-2" d="M602.61,479.94l3.72-2.83,5.45,7.17-3.5,3s-.67.55-.78.39Z" transform="translate(-598.71 -309.53)"/><rect class="cls-2" x="5.79" y="180.7" width="7.28" height="6.44"/><polygon class="cls-2" points="197.29 0.47 227.29 0.47 230.4 8.36 206.29 19.03 197.29 0.47"/><path class="cls-2" d="M766.78,352.11c0-.44,2.11-12.11,2.11-12.11l15.89,3-2.45,12.22Z" transform="translate(-598.71 -309.53)"/><polygon class="cls-2" points="164.84 67.03 175.62 62.03 179.51 71.59 169.18 76.59 164.84 67.03"/><path class="cls-2" d="M781,362.78c1.33-.78,20.89-9.22,20.89-9.22l.78,2.55,9.89-4,3.11,8.33-9.34,3.78.34,2.56-20.34,8.55Z" transform="translate(-598.71 -309.53)"/><path class="cls-2" d="M814.78,353.11c.66-.22,11.33-4.89,11.33-4.89l4.78,10.67-12.33,4.83-3.78-8.5Z" transform="translate(-598.71 -309.53)"/><path class="cls-2" d="M828.56,347.11c1.22-.89,16-7.67,16-7.67l5.38,11.12-13.22,6-2-1-2.22,1.22Z" transform="translate(-598.71 -309.53)"/><path class="cls-2" d="M851.56,337.26c.22-.3,10.14-4.45,10.14-4.45L866.37,343l-10.52,5.07Z" transform="translate(-598.71 -309.53)"/><path class="cls-2" d="M868.44,320.06c.34-.23,4.45-2.5,4.45-2.5l3.11,5.83-4.33,2.33Z" transform="translate(-598.71 -309.53)"/><path class="cls-2" d="M876.52,326.74c1.41-.89,36.74-16.74,36.74-16.74h2.81l4.52,10.3-39.33,17.18Z" transform="translate(-598.71 -309.53)"/><polygon class="cls-2" points="325.73 0.47 337.51 0.47 337.8 3.51 328.99 6.84 325.73 0.47"/><path class="cls-2" d="M769.33,411.89S783,405.78,783,406.44s4.78,11.34,4.78,11.34L781,420.67l.78,5s-8.11,3.77-8.11,3.44-2.11-6-2.11-6l2.44-2.67Z" transform="translate(-598.71 -309.53)"/><path class="cls-2" d="M789.78,401.89s3.89,10.89,4.33,10.55,13.56-6.05,13.56-6.05V405l4.77-3.11-3-6.33-5.77,1.33v-1.33Z" transform="translate(-598.71 -309.53)"/><polygon class="cls-2" points="214.29 82.7 216.18 88.7 221.95 86.03 225.62 94.48 234.06 91.81 229.06 77.14 214.29 82.7"/><path class="cls-2" d="M829.89,404.67c.33-.11,6.67-4.11,6.67-4.11l4.66,11.11-6.11,3.66Z" transform="translate(-598.71 -309.53)"/><path class="cls-2" d="M834.74,390.07c.22-.14,10.89-4.88,10.89-4.88l4.31,9.77,6.36-2.66-6.74-15.78,10.66-4.67.45,1.11,2.89-.22,1.25,4.37-2,1,7.71,16.44-10.59,4.31,0,3.38-3.23.09,2.74,6.3-3.85,1.48-3.41-8.82-3.48-.14-7.22,4.36Z" transform="translate(-598.71 -309.53)"/><path class="cls-2" d="M865.78,373.7c1.78-.81,11.11-4.74,11.11-4.74l6,13.71-10.45,4Z" transform="translate(-598.71 -309.53)"/><path class="cls-3" d="M877.85,371.85s3.26.45,3.56,2.67-.79,3-.79,3" transform="translate(-598.71 -309.53)"/><polygon class="cls-2" points="295.88 48.4 308.03 42.55 328.03 88.99 284.62 109.51 276.03 91.14 280.94 88.77 280.4 86.18 286.62 83.81 304.99 76.03 303.8 72.47 305.66 71.29 295.88 48.4"/><path class="cls-2" d="M922.17,376.72c.44-.28,14.44-6.5,14.44-6.5l8.11,18.11-6,2.45-3-5.22-8,3.05Z" transform="translate(-598.71 -309.53)"/><polygon class="cls-2" points="330.68 32.86 343.12 27.59 346.23 31.25 344.84 35.59 354.06 56.03 341.95 61.81 336.45 51.14 339.06 49.86 330.68 32.86"/><polygon class="cls-2" points="353.34 48.14 358.56 46.03 354.73 36.98 363.12 32.31 356.79 22.64 347.18 27.96 349.68 33.48 347.95 35.39 353.34 48.14"/><path class="cls-2" d="M973,326.78c.37-.37,9.74-5.56,9.74-5.56a25.11,25.11,0,0,0,1.08,3.08l3.07,0v2.19l3.11,5.22-4.37,2.19,5.6,9-7,3.44Z" transform="translate(-598.71 -309.53)"/><path class="cls-2" d="M988.19,326.19l4.44-1.78,3.56,7a32.13,32.13,0,0,1-3.78,2C992.33,333.22,988.19,326.19,988.19,326.19Z" transform="translate(-598.71 -309.53)"/><path class="cls-2" d="M989.26,313.85l5.11,9.89,13-6.63.52-2.22s4.37-1.26,4.37-1.7a20.2,20.2,0,0,0-1.78-3.19H995.33Z" transform="translate(-598.71 -309.53)"/><path class="cls-2" d="M1019.19,310h20.22v1.48l-3.41,1.71-.67-1.6-11,6.26Z" transform="translate(-598.71 -309.53)"/><polygon class="cls-2" points="481.8 0.47 480.69 2.33 482.47 2.77 482.47 4.4 480.4 7.34 484.92 9.66 490.84 0.47 481.8 0.47"/><polygon class="cls-2" points="399.84 52.7 415.62 39.31 425.56 51.2 419.73 56.48 416.73 52.92 407.56 60.53 399.84 52.7"/><path class="cls-2" d="M1021.28,353.89c.16-.33,4.78-4.5,4.78-4.5l7.66,9.05-5.16,4.89Z" transform="translate(-598.71 -309.53)"/><path class="cls-2" d="M1100.17,310a3.46,3.46,0,0,0,3,3.11c2.84.33,3.61-3.11,3.61-3.11" transform="translate(-598.71 -309.53)"/><path class="cls-2" d="M1110.11,310a1.39,1.39,0,0,0,1.5,1.57,2.13,2.13,0,0,0,2.06-1.57" transform="translate(-598.71 -309.53)"/><polygon class="cls-2" points="488.34 36.48 491.06 33.42 496.9 37.64 493.9 41.31 488.34 36.48"/><path class="cls-2" d="M1119.78,319.19c.33-.63,4.66-9.19,4.66-9.19h8l8.12,5.11-5.23,10.33-8-4.33-1.55,1.11Z" transform="translate(-598.71 -309.53)"/><polyline class="cls-2" points="531.95 29.92 528.95 32.81 533.51 36.03 535.95 33.42 532.45 29.92"/><polygon class="cls-2" points="506.62 37.36 513.62 41.31 506.62 46.84 502.06 43.81 506.62 37.36"/><polygon class="cls-2" points="545.17 9.7 542.4 14.86 546.12 16.81 547.84 15.92 562.12 22.42 567.67 10.42 563.29 8.2 562.17 9.36 551.62 5.31 549.4 10.2 545.17 9.7"/><polygon class="cls-2" points="569.95 20.98 572.9 13.86 577.84 15.92 574.51 22.92 569.95 20.98"/><polygon class="cls-2" points="682.62 0.47 681.34 7.03 667.9 4.09 667.06 7.03 661.84 5.97 661.84 2.81 647.58 0.47 647.58 3.44 645.14 3.75 645.14 2.55 643.14 2.62 643.14 4.99 636.1 3.21 636.1 1.07 632.99 1.14 632.99 0.47 682.62 0.47"/><polygon class="cls-2" points="142.84 154.14 147.06 152.47 143.95 144.36 152.4 141.47 155.84 147.81 165.18 144.25 168.29 153.36 146.06 161.59 142.84 154.14"/><polygon class="cls-2" points="177.4 135.25 179.84 134.14 181.29 139.25 178.84 141.47 177.4 135.25"/><polygon class="cls-2" points="176.73 125.92 187.84 121.03 197.18 142.47 197.18 146.92 193.95 148.47 192.73 146.59 187.62 148.47 185.29 142.36 176.73 125.92"/><path class="cls-2" d="M792.33,428.44c.67-.22,11.45-4.66,11.45-4.66l8.66,22.78h3.78v2.66l-3.78.78L811,448l-8.78,3.78L801.11,446l-3.11.78-2.11-5,2.89-1.45Z" transform="translate(-598.71 -309.53)"/><polygon class="cls-2" points="210.32 112.4 221.29 107.36 230.32 129.51 230.32 133.14 227.36 134.14 226.62 132.4 220.62 134.75 215.58 123.29 213.06 124.55 209.8 118.4 212.99 117.29 210.32 112.4"/><path class="cls-2" d="M826.22,421.56l5.11-2.75,2.08,4s7.85-2.44,7.81-2.74-1.07-3.63-1.07-3.63l3.48-.59,4.89,14-10.45,4.52.08,2.82-5.37.88-2.34-6.44Z" transform="translate(-598.71 -309.53)"/><path class="cls-2" d="M684.44,525c.6,0,13.78,2.66,13.78,2.66l-3.85,17.49,2.74.59-5.78,28.59h-3.18l-1.48,7.26-13.78-1.93,1.63-8.29-3-.89,6.37-28.73,3.35.54Z" transform="translate(-598.71 -309.53)"/><path class="cls-2" d="M685.22,651.11C686.33,651,713,646,713,646l12.89,59.67-28.78,5.66-1.22-6.55s-3.67.78-3.67.11-1.66-6.45-1-6.56,3.11-.77,3.11-.77l-6.22-32-4.44.33v-7.11l2.44-.67Z" transform="translate(-598.71 -309.53)"/><polygon class="cls-2" points="70.47 410.33 71.21 414.62 79.8 412.48 79.21 408.25 70.47 410.33"/><path class="cls-2" d="M625.93,737.33l1.63,7.11s6.81-.59,6.37-1.18-1.49-7.41-1.49-7.41Z" transform="translate(-598.71 -309.53)"/><path class="cls-2" d="M717.22,758.56v6s11.22.77,11.22,0V756h2.23v-9H720.11l-.22,11.22Z" transform="translate(-598.71 -309.53)"/><polygon class="cls-2" points="213.4 333.7 214.51 339.03 237.58 333.33 239.37 337.61 242.91 337.44 240.73 329.25 238.51 329.92 237.18 328.14 221.18 332.14 220.73 330.03 213.4 333.7"/><polygon class="cls-2" points="152.1 351.51 152.91 354.03 167.14 350.62 166.77 347.66 152.1 351.51"/><polygon class="cls-2" points="173.73 312.85 185.14 308.85 189.4 322.7 142.73 340.03 136.84 321.03 139.84 320.03 138.73 314.48 169.95 304.25 173.73 312.85"/><polygon class="cls-2" points="307.95 317.2 310.68 315.31 312.51 318.59 309.45 320.42 307.95 317.2"/><path class="cls-2" d="M1152.15,350.26c.33-.11,14-2.45,14-2.45s-.55,4.11.28,3.81,25.72-4.73,25.72-4.73-.67,2.78,0,2.78,8.45-1.78,8.45-1.23,4.11,21.23,4.11,21.23l-7.89,4.44h-2.67l-.11,3.22-20.56,3.45.12,1.33L1158,384.89l-.33-2-20.89,4.55-1-3.11-11.22,1.78-1.34-7.44-2.22.44v-5.22l1.67-.22L1121,363.56l7.11-1.67.33-3.33,11.56-1.23,13-3.22Z" transform="translate(-598.71 -309.53)"/><circle class="cls-2" cx="1202.93" cy="376.11" r="6.11" transform="translate(40.27 1193.73) rotate(-80.78)"/><path class="cls-2" d="M1185,386.39" transform="translate(-598.71 -309.53)"/><circle class="cls-2" cx="592.03" cy="76.86" r="6.17"/><path class="cls-2" d="M1216.44,342.5l-10.88,3.06,6.33,25.55-4.23,1.14,1.33,3.12,3.79-.59,5.44,26.22,9.89-1.44-.67-7h1.78l-1.78-7.23,35.56-7.66-6-26.78-12.61.94.67,5.95-4.84.66v-5.61l-7.16-1.16-1.73,12.77s-1.55-5.61-4.39-5.61-4.66,2.89-4.66,2.89l-3.06-14.22s-2.5.83-2.5.61S1216.44,342.5,1216.44,342.5Z" transform="translate(-598.71 -309.53)"/><path class="cls-4" d="M1237.67,369.06c2.33-.17,3.61,3.11,3.61,3.11l6.89-1.23-1.23-6.5s-9.44,1.12-10,1.45Z" transform="translate(-598.71 -309.53)"/><circle class="cls-2" cx="1258.56" cy="403.07" r="6.81" transform="translate(60.38 1271.29) rotate(-80.78)"/><path class="cls-2" d="M1246.09,381.31s.5,4.32.8,4.47,7.41,2.37,7.41,2.37l1.28,8.79s3.75-.87,3.61-1.09-1.71-10.66-1.71-10.66l-7.92-2.3-.49-2.22Z" transform="translate(-598.71 -309.53)"/><path class="cls-2" d="M1261.41,409.26c-.16.07.7,5.57.7,5.57l2,.95.28,3.39-4,.83,5.11,29.22-12.56,2.39L1248.5,426l-1.83-9.94,11.89-1.56-.29-4.63Z" transform="translate(-598.71 -309.53)"/><path class="cls-2" d="M1213.83,486.44c1.11,0,13.45-3.11,13.45-3.11l.28,4.5-13.45,2.06Z" transform="translate(-598.71 -309.53)"/><path class="cls-2" d="M1234.11,477.06h10v1.61h1.48v3.55h1v1.11h-1.34l-.14,2h.9v2.23s-6.68,1.55-7.57,2.33-1.33-3.28-1.33-3.28h-1.63l-.3-4.24h-1.15v-5.31Z" transform="translate(-598.71 -309.53)"/><polygon class="cls-2" points="660.84 158.36 671.29 155.59 678.4 178.03 677.84 183.47 672.17 184.47 671.89 181.44 667.1 181.84 665.62 173.25 658.4 174.81 656.95 170.03 663.06 168.25 660.84 158.36"/><polygon class="cls-2" points="688.06 214.75 693.62 210.31 696.23 214.09 690.67 218.47 688.06 214.75"/></g></svg>